<svg xmlns="http://www.w3.org/2000/svg" id="Layer_1" viewBox="0 0 620.35 198.43"><defs><style>.cls-1{fill:#e9d936;}.cls-2{fill:#130c0e;}</style></defs><path class="cls-1" d="M130.03,13.08l-13.43,50.65h11.72l2.01-8.46h12.14l1.94,8.46h11.95l-13.43-50.65h-12.9Zm2.39,33.08c1.64-7.33,2.92-14.5,3.83-21.51h.15c.86,6.8,2.15,13.97,3.87,21.51h-7.85Zm32.21-27.11c-4.17,4.92-6.26,11.16-6.26,18.72,0,8.14,2.07,14.71,6.2,19.71,4.14,4.99,9.53,7.49,16.18,7.49,1.92,0,4.1-.39,6.53-1.18v-12.03c-2.18,.76-4.07,1.14-5.69,1.14-3.31,0-5.96-1.32-7.95-3.96-1.99-2.64-2.98-6.24-2.98-10.79,0-4.22,.99-7.7,2.96-10.43,1.97-2.73,4.45-4.1,7.44-4.1,1.95,0,4.02,.37,6.22,1.1V12.67c-2.07-.66-4.35-.99-6.83-.99-6.37,0-11.65,2.46-15.82,7.38Zm41.58,33.86v-9.22h10.21v-10.51h-10.21v-9.33h11.76V13.08h-23.26V63.73h23.33v-10.81h-11.84Z"></path><path class="cls-1" d="M315.17,129.74v44.98s11.51-63.81,301.24-44.98c0,0-198.74-20.92-301.24,0Zm-5.41,63.72h2.09V115.88h-2.09v77.58Z"></path><path class="cls-2" d="M236.53,55.27h12.14l1.94,8.46h11.95l-13.43-50.65h-12.9l-13.43,50.65h11.72l2.01-8.46Zm5.92-30.62h.15c.86,6.8,2.15,13.97,3.87,21.51h-7.85c1.64-7.33,2.92-14.5,3.83-21.51Zm44.58,39.08l15.21-50.65h-12.29l-6.98,26.94c-.46,1.77-.87,4.03-1.25,6.79h-.15c-.43-3.14-1.24-6.92-2.43-11.34l-6.26-22.38h-11.99l15.48,50.65h10.66Zm33.31-50.65h-11.49V63.73h11.49V13.08Zm32.78,42.19l1.94,8.46h11.95l-13.43-50.65h-12.9l-13.43,50.65h11.72l2.01-8.46h12.14Zm-6.22-30.62h.15c.86,6.8,2.15,13.97,3.87,21.51h-7.85c1.64-7.33,2.92-14.5,3.83-21.51Zm47.31-11.57h-27.43v11.57h7.85V63.73h11.65V24.65h7.93V13.08Zm7.55,50.65h11.49V13.08h-11.49V63.73Zm38.73-52.05c-5.77,0-10.26,2.28-13.49,6.85-3.23,4.57-4.84,10.93-4.84,19.1,0,8.85,1.61,15.62,4.82,20.32,3.21,4.69,7.88,7.04,14,7.04s10.48-2.35,13.68-7.04c3.2-4.69,4.8-11.29,4.8-19.79s-1.62-15.04-4.87-19.61c-3.25-4.58-7.95-6.87-14.09-6.87Zm4.95,38.66c-1.15,2.1-2.8,3.15-4.95,3.15-2,0-3.52-1.05-4.57-3.15-1.05-2.1-1.57-6.28-1.57-12.56,0-9.74,2.07-14.61,6.22-14.61,4.4,0,6.6,4.94,6.6,14.83,0,6.12-.58,10.23-1.73,12.33Zm34.05-9.07l-.3-6.3,14.3,28.76h11.8V13.08h-11.5v23.75l.42,5.46-14.61-29.21h-11.61V63.73h11.5v-22.46ZM5.47,129.74c289.74-18.83,301.24,44.98,301.24,44.98v-44.98c-102.51-20.92-301.24,0-301.24,0Zm115.3-39.15h8.25l1.57,3.81h4.32l-7.95-17.78h-4.06l-7.93,17.78h4.22l1.58-3.81Zm4.14-9.93l2.82,6.8h-5.64l2.82-6.8Zm30.72,10.44h-9.68v-4.11h8.25v-3.2h-8.25v-3.86h9.35v-3.3h-13.44v17.78h13.77v-3.3Zm12.48-1.65h3.78l3.43,4.96h4.42l-3.99-5.72c2.31-.99,3.66-2.95,3.66-5.61,0-3.99-2.97-6.45-7.72-6.45h-7.7v17.78h4.12v-4.96Zm0-9.47h3.35c2.51,0,3.78,1.14,3.78,3.1s-1.27,3.1-3.78,3.1h-3.35v-6.2Zm28.26,14.73c5.59,0,9.73-3.88,9.73-9.19s-4.14-9.2-9.73-9.2-9.73,3.91-9.73,9.2,4.12,9.19,9.73,9.19Zm0-14.88c3.17,0,5.56,2.31,5.56,5.69s-2.39,5.69-5.56,5.69-5.56-2.31-5.56-5.69,2.39-5.69,5.56-5.69Zm40.88-3.2v17.78h4.12v-4.9h3.58c4.75,0,7.72-2.47,7.72-6.43s-2.97-6.45-7.72-6.45h-7.7Zm11.25,6.45c0,1.93-1.27,3.07-3.78,3.07h-3.35v-6.17h3.35c2.51,0,3.78,1.14,3.78,3.1Zm-26.63,8.33c-2.13,0-4.37-.76-5.87-1.85l-1.4,3.1c1.57,1.22,4.42,2.06,7.24,2.06,5.08,0,7.54-2.54,7.54-5.51,0-6.53-10.34-4.27-10.34-7.54,0-1.12,.94-2.03,3.38-2.03,1.58,0,3.28,.46,4.93,1.4l1.27-3.13c-1.65-1.04-3.94-1.57-6.17-1.57-5.05,0-7.49,2.51-7.49,5.53,0,6.61,10.34,4.32,10.34,7.65,0,1.09-.99,1.9-3.43,1.9Zm42.99-14.78l-7.93,17.78h4.22l1.58-3.81h8.25l1.57,3.81h4.32l-7.95-17.78h-4.06Zm-.81,10.85l2.82-6.8,2.82,6.8h-5.64Zm28.26-7.64c1.78,0,3.28,.71,4.47,2.08l2.64-2.44c-1.68-2.03-4.24-3.15-7.32-3.15-5.54,0-9.65,3.83-9.65,9.2s4.12,9.19,9.63,9.19c3.1,0,5.66-1.12,7.34-3.17l-2.64-2.44c-1.2,1.4-2.69,2.11-4.47,2.11-3.33,0-5.69-2.34-5.69-5.69s2.36-5.69,5.69-5.69Zm19.06,7.16h8.25v-3.2h-8.25v-3.86h9.35v-3.3h-13.44v17.78h13.77v-3.3h-9.68v-4.11Zm35.91-10.37l-7.93,17.78h4.22l1.58-3.81h8.25l1.57,3.81h4.32l-7.95-17.78h-4.06Zm-.81,10.85l2.82-6.8,2.82,6.8h-5.64Zm28.26-7.64c1.78,0,3.28,.71,4.47,2.08l2.64-2.44c-1.68-2.03-4.24-3.15-7.32-3.15-5.54,0-9.65,3.83-9.65,9.2s4.12,9.19,9.63,9.19c3.1,0,5.66-1.12,7.34-3.17l-2.64-2.44c-1.2,1.4-2.69,2.11-4.47,2.11-3.33,0-5.69-2.34-5.69-5.69s2.36-5.69,5.69-5.69Zm20.2-3.2l-7.93,17.78h4.22l1.58-3.81h8.25l1.57,3.81h4.32l-7.95-17.78h-4.06Zm-.81,10.85l2.82-6.8,2.82,6.8h-5.64Zm27.85-10.85h-8.08v17.78h8.08c5.82,0,9.8-3.51,9.8-8.89s-3.99-8.89-9.8-8.89Zm-.2,14.4h-3.76v-11.02h3.76c3.53,0,5.84,2.11,5.84,5.51s-2.31,5.51-5.84,5.51Zm22.29-4.04h8.25v-3.2h-8.25v-3.86h9.35v-3.3h-13.44v17.78h13.77v-3.3h-9.68v-4.11Zm34.66-10.37l-6.55,11.05-6.66-11.05h-3.4v17.78h3.86v-10.44l5.21,8.56h1.85l5.23-8.79,.03,10.67h3.86l-.05-17.78h-3.38Zm24.15,0l-4.75,7.9-4.75-7.9h-4.37l6.88,11.43v6.35h4.12v-6.3l6.91-11.48h-4.04Z"></path></svg>