<svg xmlns="http://www.w3.org/2000/svg" id="Layer_1" data-name="Layer 1" viewBox="0 0 334.35 105.73"><defs><style>.cls-1{fill:#e9d936;}.cls-2{fill:#fff;}</style></defs><title>Ace Black &amp;amp; White</title><path class="cls-1" d="M84.26,32.71h-6.4l-1-4.53h-6.5l-1.08,4.53H63L70.15,5.57h6.92ZM75.64,23.3q-1.38-6.06-2.07-11.53h-.08q-.73,5.63-2,11.53Z"></path><path class="cls-1" d="M100.84,26.31v6.44a11.54,11.54,0,0,1-3.5.63,10.72,10.72,0,0,1-8.67-4q-3.33-4-3.33-10.57a15,15,0,0,1,3.36-10,10.62,10.62,0,0,1,8.48-3.95,12.13,12.13,0,0,1,3.66.52v6.47a10.66,10.66,0,0,0-3.34-.59,4.73,4.73,0,0,0-4,2.2A9.27,9.27,0,0,0,91.93,19a9.36,9.36,0,0,0,1.6,5.78,5,5,0,0,0,4.26,2.13A9.71,9.71,0,0,0,100.84,26.31Z"></path><path class="cls-1" d="M104.82,5.57h12.47v5.77H111v5h5.47V22H111v4.94h6.35v5.79H104.82Z"></path><path class="cls-2" d="M141.18,32.71h-6.41l-1-4.53h-6.5l-1.08,4.53h-6.28l7.2-27.14H134Zm-8.62-9.41a116.31,116.31,0,0,1-2.08-11.53h-.08q-.74,5.63-2.05,11.53Z"></path><path class="cls-2" d="M140.28,5.57h6.43l3.35,12a50.23,50.23,0,0,1,1.3,6.08h.08a33.58,33.58,0,0,1,.68-3.64l3.74-14.43h6.58l-8.15,27.14h-5.71Z"></path><path class="cls-2" d="M166,5.57h6.16V32.71H166Z"></path><path class="cls-2" d="M197.15,32.71h-6.4l-1-4.53H183.2l-1.07,4.53h-6.29L183,5.57H190Zm-8.62-9.41q-1.38-6.06-2.07-11.53h-.08q-.74,5.63-2.06,11.53Z"></path><path class="cls-2" d="M197,5.57h14.7v6.2h-4.25V32.71h-6.24V11.77H197Z"></path><path class="cls-2" d="M215.78,5.57h6.16V32.71h-6.16Z"></path><path class="cls-2" d="M236.8,33.38a8.51,8.51,0,0,1-7.5-3.77q-2.58-3.76-2.58-10.89,0-6.57,2.59-10.23a8.35,8.35,0,0,1,7.23-3.67,8.67,8.67,0,0,1,7.55,3.68Q246.7,12.18,246.7,19t-2.57,10.6A8.33,8.33,0,0,1,236.8,33.38ZM236.58,11q-3.35,0-3.34,7.82,0,5.06.85,6.73a2.63,2.63,0,0,0,2.45,1.69,2.89,2.89,0,0,0,2.65-1.69c.62-1.12.92-3.32.92-6.6C240.11,13.63,238.94,11,236.58,11Z"></path><path class="cls-2" d="M251.28,5.57h6.22l7.83,15.65-.23-2.92V5.57h6.16V32.71h-6.32L257.28,17.3l.16,3.38v12h-6.16Z"></path><path class="cls-2" d="M3.4,68.09s106.51-11.21,161.45,0v24.1S158.68,58,3.4,68.09Z"></path><path class="cls-1" d="M330.83,68.09s-106.52-11.21-161.45,0v24.1S175.54,58,330.83,68.09Z"></path><rect class="cls-1" x="166.48" y="60.66" width="1.12" height="41.58"></rect><path class="cls-2" d="M69.62,47.11H65.19l-.84,2H62.09l4.24-9.53h2.18l4.26,9.53H70.46Zm-.7-1.68-1.51-3.64L65.9,45.43Z"></path><path class="cls-2" d="M83.88,47.38v1.77H76.5V39.62h7.2v1.77h-5v2.07h4.42v1.72H78.69v2.2Z"></path><path class="cls-2" d="M94.43,49.15l-1.84-2.66h-2v2.66H88.36V39.62h4.13c2.54,0,4.13,1.32,4.13,3.46a3.1,3.1,0,0,1-2,3l2.14,3.06Zm-2.07-7.73H90.57v3.32h1.79c1.35,0,2-.63,2-1.66S93.71,41.42,92.36,41.42Z"></path><path class="cls-2" d="M100.5,44.39a5.22,5.22,0,1,1,5.21,4.92A4.92,4.92,0,0,1,100.5,44.39Zm8.19,0a3,3,0,1,0-3,3A2.91,2.91,0,0,0,108.69,44.39Z"></path><path class="cls-2" d="M135.88,43.08c0,2.12-1.59,3.44-4.14,3.44h-1.91v2.63h-2.21V39.62h4.12C134.29,39.62,135.88,40.94,135.88,43.08Zm-2.23,0c0-1-.68-1.66-2-1.66h-1.79v3.31h1.79C133,44.73,133.65,44.11,133.65,43.08Z"></path><path class="cls-2" d="M115.48,48.21l.75-1.66a5.59,5.59,0,0,0,3.15,1c1.3,0,1.83-.43,1.83-1,0-1.78-5.54-.55-5.54-4.1,0-1.61,1.31-3,4-3a6.39,6.39,0,0,1,3.31.84L122.32,42a5.34,5.34,0,0,0-2.64-.75c-1.31,0-1.81.49-1.81,1.09,0,1.75,5.54.54,5.54,4,0,1.59-1.32,3-4,3A6.84,6.84,0,0,1,115.48,48.21Z"></path><path class="cls-2" d="M145.7,47.11h-4.42l-.85,2h-2.26l4.25-9.53h2.18l4.26,9.53h-2.32ZM145,45.43l-1.52-3.64L142,45.43Z"></path><path class="cls-2" d="M151.84,44.39a5.25,5.25,0,0,1,9.1-3.24l-1.42,1.3a3.07,3.07,0,0,0-2.39-1.11,3,3,0,1,0,0,6.09,3,3,0,0,0,2.39-1.13l1.42,1.31a5.24,5.24,0,0,1-9.1-3.22Z"></path><path class="cls-2" d="M172.53,47.38v1.77h-7.38V39.62h7.2v1.77h-5v2.07h4.43v1.72h-4.43v2.2Z"></path><path class="cls-2" d="M189.87,47.11h-4.43l-.84,2h-2.26l4.25-9.53h2.17L193,49.15h-2.32Zm-.7-1.68-1.51-3.64-1.51,3.64Z"></path><path class="cls-2" d="M196,44.39a5.25,5.25,0,0,1,9.1-3.24l-1.42,1.3a3.07,3.07,0,0,0-2.39-1.11,3,3,0,1,0,0,6.09,3,3,0,0,0,2.39-1.13l1.42,1.31a5.24,5.24,0,0,1-9.1-3.22Z"></path><path class="cls-2" d="M215.41,47.11H211l-.84,2h-2.26l4.24-9.53h2.18l4.26,9.53h-2.31Zm-.7-1.68-1.51-3.64-1.51,3.64Z"></path><path class="cls-2" d="M222.29,39.62h4.33c3.11,0,5.25,1.88,5.25,4.77s-2.14,4.76-5.25,4.76h-4.33Zm4.22,7.72a3,3,0,1,0,0-5.91h-2v5.91Z"></path><path class="cls-2" d="M243.64,47.38v1.77h-7.38V39.62h7.2v1.77h-5v2.07h4.43v1.72h-4.43v2.2Z"></path><path class="cls-2" d="M256.8,49.15l0-5.72L254,48.14h-1l-2.8-4.58v5.59h-2.06V39.62H250l3.57,5.92L257,39.62h1.81l0,9.53Z"></path><path class="cls-2" d="M268.43,45.77v3.38h-2.2v-3.4l-3.69-6.13h2.34l2.54,4.23L270,39.62h2.16Z"></path></svg>